<svg width="485" height="485" viewBox="0 0 485 485" fill="none" xmlns="http://www.w3.org/2000/svg">
<circle cx="242.5" cy="242.5" r="242.5" fill="white"/>
<path d="M309.923 214.367H248.716C245.47 214.368 242.303 215.367 239.644 217.229C236.985 219.091 234.963 221.726 233.852 224.776C216.858 271.464 199.883 318.155 182.928 364.849C177.202 380.606 196.706 393.271 208.773 381.633L354.001 241.568C364.241 231.69 357.251 214.367 343.053 214.367H309.923Z" fill="url(#paint0_linear_110_787)"/>
<path d="M243.049 213.525L238.678 268.188L250.468 267.422L263.1 264.053C270.191 259.885 337.032 220.784 348.999 222.788C351.556 223.133 353.925 224.318 355.736 226.157C358.751 229.745 357.883 235.008 357.42 237.105C359.054 233.122 362.035 224.346 357.917 218.662C353.504 212.582 343.28 213.365 338.927 213.516C319.65 214.224 287.025 214.055 243.049 213.525Z" fill="url(#paint1_linear_110_787)"/>
<path d="M263.1 264.054C260.971 265.397 258.714 266.525 256.363 267.422C251.526 269.256 246.374 270.114 241.204 269.949H220.513C222.541 269.951 224.54 269.463 226.34 268.526C228.139 267.589 229.685 266.231 230.846 264.567L244.185 245.526H244.345C241.221 250.04 240.556 255.632 242.846 259.843C246.122 265.805 255.209 268.45 263.1 264.054ZM230.888 264.567L332.34 119.719C333.669 117.824 334.451 115.601 334.602 113.292C334.753 110.982 334.266 108.676 333.196 106.624C332.125 104.573 330.512 102.855 328.531 101.658C326.551 100.461 324.279 99.8305 321.965 99.8362H239.073C237.046 99.838 235.048 100.328 233.249 101.264C231.451 102.201 229.904 103.557 228.74 105.217L127.288 250.099C125.971 251.991 125.196 254.207 125.049 256.508C124.901 258.808 125.386 261.105 126.45 263.149C127.515 265.194 129.118 266.908 131.087 268.107C133.056 269.305 135.316 269.942 137.621 269.949H220.513C222.54 269.947 224.538 269.457 226.337 268.52C228.135 267.584 229.682 266.228 230.846 264.567H230.888Z" fill="url(#paint2_linear_110_787)"/>
<defs>
<linearGradient id="paint0_linear_110_787" x1="290.933" y1="344.352" x2="232.985" y2="220.068" gradientUnits="userSpaceOnUse">
<stop stop-color="#FFEB00"/>
<stop offset="0.66" stop-color="#FF9C00"/>
<stop offset="1" stop-color="#FF7900"/>
</linearGradient>
<linearGradient id="paint1_linear_110_787" x1="238.636" y1="240.793" x2="359.955" y2="240.793" gradientUnits="userSpaceOnUse">
<stop stop-color="#FFFF00"/>
<stop offset="1" stop-color="#FFD900"/>
</linearGradient>
<linearGradient id="paint2_linear_110_787" x1="312.087" y1="90.1095" x2="168.873" y2="294.64" gradientUnits="userSpaceOnUse">
<stop stop-color="#FFFF00"/>
<stop offset="1" stop-color="#FFAD00"/>
</linearGradient>
</defs>
</svg>
