<svg width="2033" height="340" viewBox="0 0 2033 340" fill="none" xmlns="http://www.w3.org/2000/svg">
<path d="M219.6 136H146.92C143.065 136.001 139.305 137.188 136.147 139.399C132.99 141.61 130.589 144.738 129.27 148.36C109.09 203.8 88.9333 259.243 68.8 314.69C62 333.4 85.16 348.44 99.49 334.62L271.94 168.3C284.1 156.57 275.8 136 258.94 136H219.6Z" fill="url(#paint0_linear_110_742)"/>
<path d="M140.19 135L135 199.91L149 199L164 195C172.42 190.05 251.79 143.62 266 146C269.036 146.41 271.85 147.817 274 150C277.58 154.26 276.55 160.51 276 163C277.94 158.27 281.48 147.85 276.59 141.1C271.35 133.88 259.21 134.81 254.04 134.99C231.15 135.83 192.41 135.63 140.19 135Z" fill="url(#paint1_linear_110_742)"/>
<path d="M164 195C161.473 196.595 158.793 197.935 156 199C150.257 201.177 144.139 202.197 138 202H113.43C115.839 202.003 118.213 201.423 120.349 200.311C122.486 199.198 124.321 197.585 125.7 195.61L141.54 173H141.73C138.02 178.36 137.23 185 139.95 190C143.84 197.08 154.63 200.22 164 195ZM125.75 195.61L246.22 23.61C247.797 21.3599 248.726 18.7197 248.905 15.9776C249.084 13.2355 248.507 10.4969 247.236 8.06074C245.964 5.62454 244.048 3.58436 241.697 2.16288C239.345 0.741395 236.648 -0.00676923 233.9 4.61506e-05H135.47C133.062 0.00210627 130.69 0.583831 128.554 1.69605C126.419 2.80827 124.582 4.4183 123.2 6.39005L2.73004 178.43C1.1662 180.676 0.246842 183.308 0.0715629 186.04C-0.103716 188.771 0.471765 191.499 1.73567 193.926C2.99957 196.354 4.90371 198.39 7.24182 199.813C9.57994 201.236 12.2629 201.993 15 202H113.43C115.838 201.998 118.21 201.416 120.346 200.304C122.481 199.192 124.318 197.582 125.7 195.61H125.75Z" fill="url(#paint2_linear_110_742)"/>
<path d="M376.9 198.21H408.27C409.457 207.183 412.89 213.457 418.57 217.03C424.57 221.217 432.787 223.31 443.22 223.31C452.48 223.31 459.503 221.667 464.29 218.38C469.077 215.093 471.467 210.3 471.46 204C471.46 194.44 458.013 186.67 431.12 180.69L430.23 180.25L426.64 179.35C411.4 176.07 401.243 172.633 396.17 169.04C390.369 165.962 385.902 160.858 383.62 154.7C380.627 149.32 379.133 142.45 379.14 134.09C379.14 119.423 384.217 107.92 394.37 99.58C404.53 91.5067 419.32 87.4733 438.74 87.48C456.96 87.48 471.003 91.6633 480.87 100.03C491.023 109.343 496.4 121.457 497 136.37H479.08C472.2 136.37 467.27 133.233 464.29 126.96C462.799 123.978 460.652 121.373 458.01 119.34C452.63 115.46 445.297 113.517 436.01 113.51C427.05 113.51 420.627 115.153 416.74 118.44C412.26 121.733 410.02 126.363 410.02 132.33C410.02 140.397 418.687 146.373 436.02 150.26C439.695 151.447 443.451 152.363 447.26 153C452.633 154.793 457.337 156.213 461.37 157.26C465.37 158.26 468.61 159.13 471.01 159.72L483.56 165.1C489.306 168.46 494.089 173.244 497.45 178.99C500.759 185.355 502.452 192.436 502.38 199.61C502.38 215.737 497.003 228.283 486.25 237.25C475.49 245.623 460.25 249.807 440.53 249.8C420.21 249.8 404.973 245.467 394.82 236.8C383.773 228.107 377.8 215.243 376.9 198.21Z" fill="#2A2F38"/>
<path d="M517.08 92H533.21C537.247 92.0158 541.114 93.6265 543.969 96.4811C546.824 99.3358 548.434 103.203 548.45 107.24V116.65H517.08V92ZM517.08 127H533.21C537.245 127.016 541.111 128.625 543.965 131.478C546.82 134.33 548.432 138.195 548.45 142.23V246.23H517.08V127Z" fill="#2A2F38"/>
<path d="M659.5 246.17H643.82C641.794 246.261 639.772 245.929 637.882 245.195C635.992 244.462 634.275 243.342 632.842 241.908C631.408 240.475 630.288 238.758 629.555 236.868C628.821 234.978 628.489 232.956 628.58 230.93V170C628.58 162.833 626.413 157.603 622.08 154.31C617.916 151.082 612.789 149.346 607.52 149.38C602.315 149.323 597.25 151.064 593.18 154.31C588.993 157.603 586.9 162.833 586.9 170V246.19H555.53V176.25C555.53 155.937 560.833 142.343 571.44 135.47C581.942 128.633 594.098 124.763 606.62 124.27C619.454 124.178 632.047 127.752 642.92 134.57C653.973 141.45 659.5 155.343 659.5 176.25V246.17Z" fill="#2A2F38"/>
<path d="M749.05 239V231.39C743.67 239.75 736.423 244.977 727.31 247.07C718.261 249.169 708.782 248.386 700.2 244.83C691.227 241.25 683.533 234.603 677.12 224.89C670.707 215.177 667.493 202.403 667.48 186.57C667.48 168.05 671.737 153.05 680.25 141.57C688.763 130.09 702.43 124.34 721.25 124.32C735.394 124.262 749.251 128.309 761.14 135.97C773.38 143.743 779.503 158.077 779.51 178.97V242.16C779.51 263.073 773.387 277.34 761.14 284.96C749.202 292.489 735.363 296.454 721.25 296.39C693.757 296.39 676.727 283.543 670.16 257.85H702.88C705.527 262.126 709.403 265.505 714 267.544C718.598 269.583 723.703 270.188 728.65 269.28C733.57 268.22 738.05 265.307 742.09 260.54C746.13 255.773 748.45 248.593 749.05 239ZM698 187.46C698 208.067 703.973 219.493 715.92 221.74C727.867 223.987 736.68 221.223 742.36 213.45C745.027 210.17 746.97 205.017 748.19 197.99C749.382 191.1 749.456 184.063 748.41 177.15C747.452 170.517 744.911 164.212 741 158.77C737.107 153.397 731.44 150.71 724 150.71C713.84 150.71 706.967 154.443 703.38 161.91C699.682 169.912 697.843 178.647 698 187.46V187.46Z" fill="#2A2F38"/>
<path d="M792 92.0001H808.13C810.116 91.9666 812.088 92.3258 813.935 93.0568C815.781 93.7879 817.465 94.8765 818.89 96.2601C820.336 97.6007 821.483 99.2318 822.255 101.046C823.027 102.861 823.407 104.818 823.37 106.79V246.17H792V92.0001Z" fill="#2A2F38"/>
<path d="M917.37 209.42H939.78C936.494 221.96 930.234 231.52 921 238.1C911.74 244.973 900.074 248.41 886 248.41C868.974 248.41 855.68 242.88 846.12 231.82C836.547 221.073 831.767 205.687 831.78 185.66C831.78 166.553 836.41 151.617 845.67 140.85C855.23 129.803 868.527 124.277 885.56 124.27C903.48 124.27 917.37 129.647 927.23 140.4C936.79 151.46 941.57 166.847 941.57 186.56V191.49C941.638 192.556 941.488 193.624 941.13 194.63H863.6C863.887 203.89 866.127 210.76 870.32 215.24C874.2 220.02 880.027 222.41 887.8 222.41C892.336 222.548 896.825 221.467 900.8 219.28C901.736 218.959 902.582 218.421 903.27 217.71L905.73 215.24C906.03 214.347 907.15 213.153 909.09 211.66C911 210.17 913.79 209.42 917.37 209.42ZM863.6 174.42H909.31C908.71 166.347 906.617 160.37 903.03 156.49C899.15 152.31 893.624 150.22 886.45 150.22C879.877 150.22 874.5 152.31 870.32 156.49C866.14 160.67 863.9 166.66 863.6 174.46V174.42Z" fill="#2A2F38"/>
<path d="M1041.33 191V246.13H1009.52V108.13C1009.5 106.007 1009.91 103.902 1010.71 101.937C1011.52 99.9721 1012.7 98.1871 1014.21 96.6858C1015.71 95.1845 1017.49 93.9971 1019.46 93.1926C1021.42 92.3881 1023.53 91.9827 1025.65 92H1078.08C1094.51 92 1106.76 96.1834 1114.83 104.55C1123.19 112.923 1127.37 125.32 1127.38 141.74C1127.38 157.28 1123.35 169.53 1115.28 178.49C1107.21 186.863 1095.55 191.047 1080.28 191.04L1041.33 191ZM1041.33 163.22H1072.26C1080.62 163.22 1086.59 161.427 1090.18 157.84C1094.06 154.547 1096 148.88 1096.01 140.84C1096.01 133.967 1094.22 128.44 1090.63 124.26C1086.44 120.673 1080.91 118.88 1074.05 118.88H1041.33V163.22Z" fill="#2A2F38"/>
<path d="M1215.13 241.24C1208.92 244.487 1202.16 246.523 1195.19 247.24C1189.01 247.934 1182.8 248.308 1176.59 248.36C1165.83 248.36 1156.42 245.447 1148.36 239.62C1140.3 233.793 1136.27 224.157 1136.26 210.71C1136.26 198.163 1139.93 189.2 1147.26 183.82C1154.59 178.44 1163.93 174.857 1175.26 173.07C1177.07 173.03 1178.87 172.802 1180.64 172.39C1182.73 171.95 1185.12 171.57 1187.81 171.27C1200.96 169.477 1207.54 165.593 1207.53 159.62C1207.53 155.14 1205.22 152.227 1200.59 150.88C1196.44 149.619 1192.14 148.946 1187.81 148.88C1184 148.82 1180.21 149.426 1176.61 150.67C1175.01 151.232 1173.55 152.119 1172.32 153.276C1171.08 154.433 1170.1 155.834 1169.44 157.39H1139.44C1140.47 148.422 1144.98 140.216 1151.99 134.53C1160.06 127.663 1171.57 124.23 1186.5 124.23C1203.23 124.23 1215.78 127.067 1224.14 132.74C1232.81 138.74 1237.14 147.107 1237.14 157.84V198.62C1237.14 210.573 1234.97 219.907 1230.64 226.62C1226.31 233.333 1221.14 238.207 1215.13 241.24ZM1208 186.11C1202.4 188.689 1196.54 190.644 1190.52 191.94L1180.21 194.18C1174.84 195.68 1170.95 197.62 1168.56 200C1166.59 202.917 1165.5 206.341 1165.43 209.86C1165.43 214.347 1166.76 217.933 1169.43 220.62C1172.1 223.007 1175.98 224.203 1181.08 224.21C1189.44 224.21 1196.01 221.817 1200.8 217.03C1205.59 212.243 1207.98 205.673 1207.97 197.32L1208 186.11Z" fill="#2A2F38"/>
<path d="M1326.18 239V231.39C1320.81 239.75 1313.56 244.977 1304.45 247.07C1295.4 249.169 1285.92 248.386 1277.33 244.83C1268.37 241.25 1260.68 234.603 1254.25 224.89C1247.82 215.177 1244.61 202.403 1244.62 186.57C1244.62 168.05 1248.88 153.05 1257.39 141.57C1265.9 130.09 1279.57 124.34 1298.39 124.32C1312.53 124.259 1326.39 128.306 1338.27 135.97C1350.52 143.743 1356.65 158.077 1356.65 178.97V242.16C1356.65 263.073 1350.52 277.34 1338.27 284.96C1326.34 292.49 1312.5 296.455 1298.39 296.39C1270.9 296.39 1253.87 283.543 1247.3 257.85H1280C1282.65 262.126 1286.52 265.505 1291.12 267.544C1295.72 269.583 1300.82 270.188 1305.77 269.28C1310.7 268.22 1315.18 265.307 1319.22 260.54C1323.26 255.773 1325.58 248.593 1326.18 239ZM1275.09 187.47C1275.09 208.077 1281.07 219.503 1293.02 221.75C1304.97 223.997 1313.79 221.233 1319.46 213.46C1322.13 210.18 1324.07 205.027 1325.29 198C1326.48 191.11 1326.56 184.073 1325.51 177.16C1324.56 170.529 1322.02 164.224 1318.12 158.78C1314.23 153.407 1308.57 150.72 1301.12 150.72C1290.96 150.72 1284.09 154.453 1280.5 161.92C1276.79 169.916 1274.94 178.648 1275.09 187.46V187.47Z" fill="#2A2F38"/>
<path d="M1450.68 209.42H1473.09C1469.8 221.96 1463.53 231.52 1454.27 238.1C1445 244.973 1433.34 248.41 1419.27 248.41C1402.24 248.41 1388.94 242.88 1379.39 231.82C1369.82 221.073 1365.03 205.687 1365.04 185.66C1365.04 166.553 1369.67 151.617 1378.94 140.85C1388.5 129.803 1401.79 124.277 1418.82 124.27C1436.75 124.27 1450.65 129.647 1460.5 140.4C1470.06 151.46 1474.84 166.847 1474.84 186.56V191.49C1474.91 192.557 1474.76 193.626 1474.39 194.63H1396.9C1397.2 203.89 1399.44 210.76 1403.63 215.24C1407.51 220.02 1413.33 222.41 1421.1 222.41C1425.64 222.547 1430.12 221.466 1434.1 219.28C1435.04 218.959 1435.88 218.421 1436.57 217.71L1439.03 215.24C1439.32 214.35 1440.45 213.16 1442.39 211.66C1444.33 210.16 1447.1 209.42 1450.68 209.42ZM1396.9 174.42H1442.62C1442.01 166.347 1439.92 160.37 1436.34 156.49C1432.45 152.31 1426.93 150.22 1419.76 150.22C1413.18 150.22 1407.8 152.31 1403.63 156.49C1399.46 160.67 1397.21 166.66 1396.9 174.46V174.42Z" fill="#2A2F38"/>
<path d="M1542.82 198.21H1574.19C1575.4 207.183 1578.83 213.447 1584.5 217C1590.5 221.187 1598.72 223.28 1609.15 223.28C1618.41 223.28 1625.43 221.637 1630.21 218.35C1634.99 215.063 1637.38 210.283 1637.38 204.01C1637.38 194.45 1623.94 186.68 1597.05 180.7L1596.15 180.26L1592.57 179.36C1577.33 176.08 1567.17 172.643 1562.09 169.05C1556.29 165.974 1551.82 160.869 1549.55 154.71C1546.56 149.33 1545.07 142.46 1545.06 134.1C1545.06 119.433 1550.14 107.93 1560.3 99.59C1570.45 91.5167 1585.24 87.4833 1604.67 87.49C1622.89 87.49 1636.93 91.6733 1646.8 100.04C1656.95 109.3 1662.33 121.4 1662.93 136.34H1645C1638.13 136.34 1633.2 133.203 1630.21 126.93C1628.73 123.947 1626.58 121.341 1623.94 119.31C1618.56 115.43 1611.23 113.487 1601.94 113.48C1592.98 113.48 1586.56 115.123 1582.67 118.41C1578.19 121.703 1575.95 126.333 1575.95 132.3C1575.95 140.367 1584.62 146.343 1601.95 150.23C1605.61 151.397 1609.36 152.296 1613.15 152.92C1618.53 154.713 1623.24 156.133 1627.27 157.18C1631.3 158.227 1634.52 159.047 1636.91 159.64L1649.45 165.02C1655.2 168.377 1659.99 173.161 1663.35 178.91C1666.65 185.277 1668.35 192.357 1668.28 199.53C1668.28 215.657 1662.9 228.203 1652.14 237.17C1641.39 245.543 1626.16 249.727 1606.43 249.72C1586.11 249.72 1570.87 245.387 1560.72 236.72C1549.68 228.08 1543.71 215.243 1542.82 198.21Z" fill="#2A2F38"/>
<path d="M1755.16 160.57C1753.14 157.578 1750.4 155.146 1747.19 153.5C1743.97 151.855 1740.4 151.05 1736.79 151.16C1728.42 151.16 1722 154.16 1717.52 160.16C1713.04 166.16 1710.8 174.377 1710.79 184.81V246.21H1680.32V92H1695.56C1699.6 92.0184 1703.46 93.6303 1706.31 96.4847C1709.16 99.339 1710.77 103.205 1710.79 107.24V142.64C1713.22 138.386 1716.51 134.68 1720.45 131.754C1724.38 128.829 1728.87 126.748 1733.65 125.64C1743.01 123.219 1752.9 123.846 1761.88 127.43C1770.32 131.076 1777.6 136.953 1782.95 144.43C1788.62 152.21 1791.45 162.967 1791.46 176.7V246.17H1761.46V184.32C1761.49 180.186 1761.12 176.06 1760.34 172C1759.42 167.874 1757.66 163.982 1755.16 160.57V160.57Z" fill="#2A2F38"/>
<path d="M1817.36 235.41C1811.09 230.03 1806.61 222.783 1803.92 213.67C1801.22 204.429 1799.88 194.847 1799.92 185.22C1799.93 177.038 1801.07 168.897 1803.28 161.02C1805.19 153.576 1808.79 146.673 1813.81 140.85C1821.58 131.883 1831.58 126.58 1843.81 124.94C1856.04 123.3 1867.1 124.27 1876.97 127.85C1888.04 132.075 1897.04 140.432 1902.07 151.16C1907.14 161.02 1909.68 172.52 1909.69 185.66C1909.69 195.227 1908.64 203.443 1906.55 210.31C1904.77 216.515 1902.05 222.41 1898.48 227.79C1891.31 237.65 1882.19 243.777 1871.14 246.17C1861.41 248.851 1851.18 249.081 1841.34 246.84C1831.33 244.6 1823.33 240.79 1817.36 235.41ZM1838.88 156.53C1832.6 163.41 1829.76 173.643 1830.36 187.23C1830.96 200.817 1833.5 210.303 1837.98 215.69C1839.77 218.083 1842.9 220.1 1847.39 221.74C1851.77 223.382 1856.58 223.54 1861.06 222.19C1865.69 220.857 1869.8 217.493 1873.38 212.1C1876.96 206.707 1878.9 198.04 1879.21 186.1C1879.21 175.353 1877.49 167.287 1874.06 161.9C1870.63 156.513 1866.67 153.077 1862.18 151.59C1857.83 150.104 1853.13 150.027 1848.74 151.37C1844.25 152.72 1841 154.45 1838.88 156.53V156.53Z" fill="#2A2F38"/>
<path d="M1950.83 274.85C1950.81 278.885 1949.2 282.748 1946.34 285.6C1943.49 288.452 1939.62 290.062 1935.59 290.08H1920.35V178.49C1920.35 157.577 1926.48 143.31 1938.73 135.69C1950.67 128.166 1964.5 124.204 1978.61 124.27C1986.35 124.321 1994.01 125.761 2001.24 128.52C2008.86 131.373 2014.91 135.483 2019.39 140.85C2028.36 152.497 2032.84 167.433 2032.84 185.66C2032.84 204.493 2028.36 219.733 2019.39 231.38C2010.43 242.713 1998.93 248.38 1984.89 248.38C1978.1 248.535 1971.36 247.168 1965.17 244.38C1959.1 241.306 1954.1 236.463 1950.83 230.49V274.85ZM2001.92 187C2001.92 175.353 1999.68 166.39 1995.19 160.11C1990.7 153.83 1984.28 150.693 1975.92 150.7C1967.86 150.7 1961.59 153.837 1957.1 160.11C1952.91 165.79 1950.82 174.753 1950.83 187C1950.83 198.333 1953.07 206.847 1957.55 212.54C1962.03 218.82 1968.45 221.957 1976.82 221.95C1980.43 222.06 1984 221.255 1987.22 219.61C1990.43 217.964 1993.17 215.532 1995.19 212.54C1999.68 206.28 2001.93 197.767 2001.92 187Z" fill="#2A2F38"/>
<defs>
<linearGradient id="paint0_linear_110_742" x1="197.05" y1="290.35" x2="128.24" y2="142.77" gradientUnits="userSpaceOnUse">
<stop stop-color="#FFEB00"/>
<stop offset="0.66" stop-color="#FF9C00"/>
<stop offset="1" stop-color="#FF7900"/>
</linearGradient>
<linearGradient id="paint1_linear_110_742" x1="134.95" y1="167.38" x2="279.01" y2="167.38" gradientUnits="userSpaceOnUse">
<stop stop-color="#FFFF00"/>
<stop offset="1" stop-color="#FFD900"/>
</linearGradient>
<linearGradient id="paint2_linear_110_742" x1="222.17" y1="-11.55" x2="52.11" y2="231.32" gradientUnits="userSpaceOnUse">
<stop stop-color="#FFFF00"/>
<stop offset="1" stop-color="#FFAD00"/>
</linearGradient>
</defs>
</svg>
