<svg xmlns="http://www.w3.org/2000/svg" xmlns:xlink="http://www.w3.org/1999/xlink" viewBox="0 0 2225.64 340"><defs><style>.cls-1{fill:url(#Безымянный_градиент_5);}.cls-2{fill:url(#linear-gradient);}.cls-3{fill:url(#linear-gradient-2);}.cls-4{font-size:229.46px;fill:#fff;font-family:Harabara;letter-spacing:0.02em;}</style><linearGradient id="Безымянный_градиент_5" x1="197.05" y1="290.35" x2="128.24" y2="142.77" gradientUnits="userSpaceOnUse"><stop offset="0" stop-color="#ffeb00"/><stop offset="0.66" stop-color="#ff9c00"/><stop offset="1" stop-color="#ff7900"/></linearGradient><linearGradient id="linear-gradient" x1="134.95" y1="167.38" x2="279.01" y2="167.38" gradientUnits="userSpaceOnUse"><stop offset="0" stop-color="#ff0"/><stop offset="1" stop-color="#ffd900"/></linearGradient><linearGradient id="linear-gradient-2" x1="222.17" y1="-11.55" x2="52.11" y2="231.32" gradientUnits="userSpaceOnUse"><stop offset="0" stop-color="#ff0"/><stop offset="1" stop-color="#ffad00"/></linearGradient></defs><g id="Слой_2" data-name="Слой 2"><g id="Слой_1-2" data-name="Слой 1"><path class="cls-1" d="M219.6,136H146.92a18.79,18.79,0,0,0-17.65,12.36Q99,231.52,68.8,314.69C62,333.4,85.16,348.44,99.49,334.62L271.94,168.3c12.16-11.73,3.86-32.3-13-32.3Z"/><path class="cls-2" d="M140.19,135,135,199.91,157,198l7-3c8.42-4.95,87.79-51.38,102-49a13.82,13.82,0,0,1,8,4c3.58,4.26,2.55,10.51,2,13,1.94-4.73,5.48-15.15.59-21.9-5.24-7.22-17.38-6.29-22.55-6.11C231.15,135.83,192.41,135.63,140.19,135Z"/><path class="cls-3" d="M164,195a45.09,45.09,0,0,1-8,4,46.57,46.57,0,0,1-18,3H113.43a14.94,14.94,0,0,0,12.27-6.39L141.54,173h.19c-3.71,5.36-4.5,12-1.78,17C143.84,197.08,154.63,200.22,164,195Zm-38.25.61,120.47-172A15,15,0,0,0,233.9,0H135.47A15,15,0,0,0,123.2,6.39L2.73,178.43A15,15,0,0,0,15,202h98.43A15,15,0,0,0,125.7,195.61Z"/><text class="cls-4" transform="translate(376.9 246.17)">Single Page Startup</text></g></g></svg>