<svg width="4725" height="729" viewBox="0 0 4725 729" fill="none" xmlns="http://www.w3.org/2000/svg">
<path d="M470.633 291.404H314.861C297.934 291.404 282.721 301.903 277.15 317.973C233.868 436.677 190.8 555.381 147.518 674.299C132.948 714.367 182.658 746.722 213.298 716.939C336.502 598.234 459.705 479.316 582.909 360.612C609.05 335.543 591.266 291.404 555.054 291.404H470.633Z" fill="url(#paint0_linear_1_3)"/>
<path d="M300.505 289.261L289.363 428.32C305.861 427.035 322.146 425.535 338.644 424.249C342.93 422.107 347.215 419.964 351.5 417.821C369.499 407.108 539.627 307.688 570.053 312.83C581.623 314.759 587.194 321.401 587.194 321.401C594.908 330.615 592.551 343.899 591.48 349.256C598.979 338.542 603.264 316.901 592.765 302.331C581.623 286.904 555.483 288.832 544.341 289.261C495.274 290.975 412.352 290.547 300.505 289.261Z" fill="url(#paint1_linear_1_3)"/>
<path d="M351.5 417.821C346.786 420.821 341.001 423.821 334.359 426.392C319.146 432.177 305.219 433.034 295.791 432.82C278.221 432.82 260.865 432.82 243.295 432.82C246.081 432.82 251.866 432.392 258.08 429.178C262.579 426.821 266.65 423.392 269.65 419.107L303.504 370.683H303.933C296.005 382.253 294.291 396.395 300.076 407.108C308.218 422.321 331.359 428.963 351.5 417.821ZM269.436 419.107L527.628 50.5671C542.627 29.3546 527.2 0 501.273 0H290.434C279.935 0 270.079 5.14242 264.079 13.7131L5.88704 382.253C-9.11168 403.465 6.31557 432.82 32.2419 432.82H243.081C253.58 432.82 263.436 427.678 269.436 419.107Z" fill="url(#paint2_linear_1_3)"/>
<path d="M798 417.508H866.359C868.964 437.039 876.451 450.711 888.82 458.523C901.841 467.638 919.745 472.195 942.531 472.195C962.714 472.195 978.013 468.615 988.43 461.453C998.846 454.292 1004.05 443.875 1004.05 430.203C1004.05 409.37 974.758 392.443 916.164 379.422L914.211 378.445C914.211 378.445 911.607 377.794 906.398 376.492C873.195 369.331 851.06 361.844 839.992 354.031C826.971 346.87 817.857 336.453 812.648 322.781C806.138 311.062 802.883 296.089 802.883 277.859C802.883 245.958 813.951 220.893 836.086 202.664C858.221 185.086 890.448 176.297 932.766 176.297C972.479 176.297 1003.08 185.411 1024.56 203.641C1046.7 223.823 1058.42 250.19 1059.72 282.742H1020.66C1005.68 282.742 994.94 275.906 988.43 262.234C985.174 255.724 980.617 250.19 974.758 245.633C963.039 237.169 947.089 232.938 926.906 232.938C907.375 232.938 893.378 236.518 884.914 243.68C875.148 250.841 870.266 260.932 870.266 273.953C870.266 291.531 889.146 304.552 926.906 313.016C937.974 316.271 946.112 318.224 951.32 318.875C963.039 322.781 973.13 326.036 981.594 328.641C990.708 330.594 997.87 332.221 1003.08 333.523C1012.19 337.43 1021.31 341.336 1030.42 345.242C1043.44 353.055 1053.53 363.146 1060.7 375.516C1067.86 389.188 1071.44 404.161 1071.44 420.438C1071.44 455.594 1059.72 482.938 1036.28 502.469C1012.84 520.698 979.641 529.812 936.672 529.812C892.401 529.812 859.198 520.372 837.062 501.492C812.974 482.612 799.953 454.617 798 417.508Z" fill="#2B2F37"/>
<path d="M1098.47 262.234H1133.62C1142.74 262.234 1150.55 265.49 1157.06 272C1163.57 278.51 1166.83 286.323 1166.83 295.438V522H1098.47V262.234ZM1098.47 186.062H1133.62C1142.74 186.062 1150.55 189.318 1157.06 195.828C1163.57 202.339 1166.83 210.151 1166.83 219.266V239.773H1098.47V186.062Z" fill="#2B2F37"/>
<path d="M1403.82 522H1369.64C1359.88 522 1351.74 519.07 1345.23 513.211C1339.37 506.701 1336.44 498.562 1336.44 488.797V355.984C1336.44 340.359 1331.55 328.966 1321.79 321.805C1312.67 314.643 1302.26 311.062 1290.54 311.062C1278.82 311.062 1268.4 314.643 1259.29 321.805C1250.17 328.966 1245.62 340.359 1245.62 355.984V522H1177.26V369.656C1177.26 325.385 1188.65 295.763 1211.44 280.789C1234.88 265.815 1260.59 257.677 1288.59 256.375C1317.23 256.375 1343.6 263.862 1367.69 278.836C1391.78 293.81 1403.82 324.083 1403.82 369.656V522Z" fill="#2B2F37"/>
<path d="M1593.94 506.375V489.773C1582.22 508.003 1566.27 519.396 1546.09 523.953C1526.55 528.51 1507.02 526.883 1487.49 519.07C1467.96 511.258 1451.03 496.935 1436.71 476.102C1423.04 454.617 1416.2 426.622 1416.2 392.117C1416.2 351.753 1425.32 319.201 1443.55 294.461C1462.43 269.07 1492.38 256.375 1533.39 256.375C1564.64 256.375 1593.61 264.839 1620.3 281.766C1647 298.693 1660.34 329.943 1660.34 375.516V513.211C1660.34 558.784 1647 589.708 1620.3 605.984C1593.61 622.911 1564.64 631.375 1533.39 631.375C1473.49 631.375 1436.39 603.38 1422.06 547.391H1493.35C1498.56 556.505 1506.37 563.341 1516.79 567.898C1527.86 573.107 1538.6 574.409 1549.02 571.805C1560.08 569.852 1569.85 563.667 1578.31 553.25C1587.43 542.833 1592.64 527.208 1593.94 506.375ZM1482.61 394.07C1482.61 438.992 1495.63 464.057 1521.67 469.266C1547.71 473.823 1566.92 467.638 1579.29 450.711C1585.15 443.549 1589.38 432.482 1591.98 417.508C1594.59 401.883 1594.59 386.583 1591.98 371.609C1590.03 356.635 1584.82 343.289 1576.36 331.57C1567.9 319.852 1555.53 313.992 1539.25 313.992C1517.11 313.992 1502.14 322.13 1494.33 338.406C1486.52 354.682 1482.61 373.237 1482.61 394.07Z" fill="#2B2F37"/>
<path d="M1682.49 186.062H1717.65C1726.76 186.062 1734.58 189.318 1741.09 195.828C1747.6 201.688 1750.85 209.174 1750.85 218.289V522H1682.49V186.062Z" fill="#2B2F37"/>
<path d="M1950.73 441.922H1999.56C1992.4 469.266 1978.73 490.099 1958.55 504.422C1938.36 519.396 1912.97 526.883 1882.38 526.883C1845.27 526.883 1816.29 514.839 1795.46 490.75C1774.63 467.312 1764.21 433.784 1764.21 390.164C1764.21 348.497 1774.3 315.945 1794.48 292.508C1815.32 268.419 1844.29 256.375 1881.4 256.375C1920.46 256.375 1950.73 268.094 1972.22 291.531C1993.05 315.62 2003.47 349.148 2003.47 392.117C2003.47 394.721 2003.47 397 2003.47 398.953C2003.47 400.906 2003.47 402.208 2003.47 402.859C2003.47 406.115 2003.14 408.393 2002.49 409.695H1833.55C1834.2 429.878 1839.08 444.852 1848.2 454.617C1856.66 465.034 1869.35 470.242 1886.28 470.242C1897.35 470.242 1906.79 467.964 1914.6 463.406C1916.55 462.755 1918.18 461.779 1919.48 460.477C1921.44 458.523 1923.39 456.57 1925.34 454.617C1925.99 452.664 1928.27 450.06 1932.18 446.805C1936.74 443.549 1942.92 441.922 1950.73 441.922ZM1833.55 365.75H1933.16C1931.85 348.172 1927.3 335.151 1919.48 326.688C1911.02 317.573 1898.98 313.016 1883.35 313.016C1869.03 313.016 1857.31 317.573 1848.2 326.688C1839.08 335.802 1834.2 348.823 1833.55 365.75Z" fill="#2B2F37"/>
<path d="M2210.85 401.883V522H2141.52V221.219C2141.52 211.453 2144.77 203.315 2151.28 196.805C2158.44 189.643 2166.91 186.062 2176.67 186.062H2290.93C2326.74 186.062 2353.43 195.177 2371.01 213.406C2389.24 231.635 2398.35 258.654 2398.35 294.461C2398.35 328.315 2389.56 355.008 2371.98 374.539C2354.41 392.768 2329.02 401.883 2295.81 401.883H2210.85ZM2210.85 341.336H2278.23C2296.46 341.336 2309.48 337.43 2317.3 329.617C2325.76 322.456 2329.99 310.086 2329.99 292.508C2329.99 277.534 2326.09 265.49 2318.27 256.375C2309.16 248.562 2297.11 244.656 2282.14 244.656H2210.85V341.336Z" fill="#2B2F37"/>
<path d="M2568.94 391.141C2559.82 395.698 2547.13 399.93 2530.85 403.836C2515.88 407.091 2508.39 408.719 2508.39 408.719C2496.67 411.974 2488.21 416.206 2483 421.414C2478.44 428.576 2476.16 435.737 2476.16 442.898C2476.16 452.664 2479.09 460.477 2484.95 466.336C2490.81 471.544 2499.28 474.148 2510.34 474.148C2528.57 474.148 2542.9 468.94 2553.31 458.523C2563.73 448.107 2568.94 433.784 2568.94 415.555V391.141ZM2584.56 511.258C2570.89 518.419 2556.24 522.651 2540.62 523.953C2525.64 525.906 2512.3 526.883 2500.58 526.883C2477.14 526.883 2456.63 520.698 2439.05 508.328C2421.48 495.307 2412.69 474.148 2412.69 444.852C2412.69 417.508 2420.5 397.977 2436.12 386.258C2452.4 374.539 2472.91 366.727 2497.65 362.82C2500.9 362.82 2504.81 362.495 2509.37 361.844C2513.92 360.542 2519.13 359.565 2524.99 358.914C2553.64 355.008 2567.96 346.544 2567.96 333.523C2567.96 323.758 2562.75 317.573 2552.34 314.969C2542.57 311.714 2533.46 310.086 2524.99 310.086C2515.88 310.086 2507.74 311.388 2500.58 313.992C2493.42 316.596 2488.21 321.479 2484.95 328.641H2419.52C2422.13 308.458 2431.24 291.857 2446.87 278.836C2464.45 263.862 2489.51 256.375 2522.06 256.375C2558.52 256.375 2585.86 262.56 2604.09 274.93C2622.97 287.951 2632.41 306.18 2632.41 329.617V418.484C2632.41 444.526 2627.53 465.034 2617.77 480.008C2608.65 494.331 2597.58 504.747 2584.56 511.258Z" fill="#2B2F37"/>
<path d="M2821.55 506.375V489.773C2809.84 508.003 2793.89 519.396 2773.7 523.953C2754.17 528.51 2734.64 526.883 2715.11 519.07C2695.58 511.258 2678.65 496.935 2664.33 476.102C2650.66 454.617 2643.82 426.622 2643.82 392.117C2643.82 351.753 2652.93 319.201 2671.16 294.461C2690.04 269.07 2719.99 256.375 2761.01 256.375C2792.26 256.375 2821.23 264.839 2847.92 281.766C2874.61 298.693 2887.96 329.943 2887.96 375.516V513.211C2887.96 558.784 2874.61 589.708 2847.92 605.984C2821.23 622.911 2792.26 631.375 2761.01 631.375C2701.11 631.375 2664 603.38 2649.68 547.391H2720.97C2726.18 556.505 2733.99 563.341 2744.41 567.898C2755.47 573.107 2766.22 574.409 2776.63 571.805C2787.7 569.852 2797.47 563.667 2805.93 553.25C2815.04 542.833 2820.25 527.208 2821.55 506.375ZM2710.23 394.07C2710.23 438.992 2723.25 464.057 2749.29 469.266C2775.33 473.823 2794.54 467.638 2806.91 450.711C2812.77 443.549 2817 432.482 2819.6 417.508C2822.21 401.883 2822.21 386.583 2819.6 371.609C2817.65 356.635 2812.44 343.289 2803.98 331.57C2795.51 319.852 2783.14 313.992 2766.87 313.992C2744.73 313.992 2729.76 322.13 2721.95 338.406C2714.13 354.682 2710.23 373.237 2710.23 394.07Z" fill="#2B2F37"/>
<path d="M3087.84 441.922H3136.67C3129.51 469.266 3115.84 490.099 3095.66 504.422C3075.47 519.396 3050.08 526.883 3019.48 526.883C2982.38 526.883 2953.4 514.839 2932.57 490.75C2911.74 467.312 2901.32 433.784 2901.32 390.164C2901.32 348.497 2911.41 315.945 2931.59 292.508C2952.43 268.419 2981.4 256.375 3018.51 256.375C3057.57 256.375 3087.84 268.094 3109.33 291.531C3130.16 315.62 3140.58 349.148 3140.58 392.117C3140.58 394.721 3140.58 397 3140.58 398.953C3140.58 400.906 3140.58 402.208 3140.58 402.859C3140.58 406.115 3140.25 408.393 3139.6 409.695H2970.66C2971.31 429.878 2976.19 444.852 2985.3 454.617C2993.77 465.034 3006.46 470.242 3023.39 470.242C3034.46 470.242 3043.9 467.964 3051.71 463.406C3053.66 462.755 3055.29 461.779 3056.59 460.477C3058.55 458.523 3060.5 456.57 3062.45 454.617C3063.1 452.664 3065.38 450.06 3069.29 446.805C3073.85 443.549 3080.03 441.922 3087.84 441.922ZM2970.66 365.75H3070.27C3068.96 348.172 3064.41 335.151 3056.59 326.688C3048.13 317.573 3036.09 313.016 3020.46 313.016C3006.14 313.016 2994.42 317.573 2985.3 326.688C2976.19 335.802 2971.31 348.823 2970.66 365.75Z" fill="#2B2F37"/>
<path d="M3278.62 417.508H3346.98C3349.59 437.039 3357.08 450.711 3369.45 458.523C3382.47 467.638 3400.37 472.195 3423.16 472.195C3443.34 472.195 3458.64 468.615 3469.05 461.453C3479.47 454.292 3484.68 443.875 3484.68 430.203C3484.68 409.37 3455.38 392.443 3396.79 379.422L3394.84 378.445C3394.84 378.445 3392.23 377.794 3387.02 376.492C3353.82 369.331 3331.68 361.844 3320.62 354.031C3307.6 346.87 3298.48 336.453 3293.27 322.781C3286.76 311.062 3283.51 296.089 3283.51 277.859C3283.51 245.958 3294.58 220.893 3316.71 202.664C3338.85 185.086 3371.07 176.297 3413.39 176.297C3453.1 176.297 3483.7 185.411 3505.19 203.641C3527.32 223.823 3539.04 250.19 3540.34 282.742H3501.28C3486.31 282.742 3475.57 275.906 3469.05 262.234C3465.8 255.724 3461.24 250.19 3455.38 245.633C3443.66 237.169 3427.71 232.938 3407.53 232.938C3388 232.938 3374 236.518 3365.54 243.68C3355.77 250.841 3350.89 260.932 3350.89 273.953C3350.89 291.531 3369.77 304.552 3407.53 313.016C3418.6 316.271 3426.74 318.224 3431.95 318.875C3443.66 322.781 3453.76 326.036 3462.22 328.641C3471.33 330.594 3478.49 332.221 3483.7 333.523C3492.82 337.43 3501.93 341.336 3511.05 345.242C3524.07 353.055 3534.16 363.146 3541.32 375.516C3548.48 389.188 3552.06 404.161 3552.06 420.438C3552.06 455.594 3540.34 482.938 3516.91 502.469C3493.47 520.698 3460.27 529.812 3417.3 529.812C3373.03 529.812 3339.82 520.372 3317.69 501.492C3293.6 482.612 3280.58 454.617 3278.62 417.508Z" fill="#2B2F37"/>
<path d="M3688.47 522C3666.98 523.302 3643.55 522.977 3618.16 521.023C3593.42 519.07 3581.05 503.12 3581.05 473.172V186.062H3616.2C3624.67 186.062 3632.15 189.318 3638.66 195.828C3645.17 202.339 3648.43 210.151 3648.43 219.266V263.211H3688.47V276.883C3688.47 286.648 3685.21 294.786 3678.7 301.297C3672.19 307.156 3664.38 310.086 3655.27 310.086H3648.43V454.617C3648.43 465.685 3654.94 471.219 3667.96 471.219H3688.47V522Z" fill="#2B2F37"/>
<path d="M3852.22 391.141C3843.1 395.698 3830.41 399.93 3814.13 403.836C3799.16 407.091 3791.67 408.719 3791.67 408.719C3779.95 411.974 3771.49 416.206 3766.28 421.414C3761.72 428.576 3759.45 435.737 3759.45 442.898C3759.45 452.664 3762.38 460.477 3768.23 466.336C3774.09 471.544 3782.56 474.148 3793.62 474.148C3811.85 474.148 3826.18 468.94 3836.59 458.523C3847.01 448.107 3852.22 433.784 3852.22 415.555V391.141ZM3867.84 511.258C3854.17 518.419 3839.52 522.651 3823.9 523.953C3808.92 525.906 3795.58 526.883 3783.86 526.883C3760.42 526.883 3739.91 520.698 3722.34 508.328C3704.76 495.307 3695.97 474.148 3695.97 444.852C3695.97 417.508 3703.78 397.977 3719.41 386.258C3735.68 374.539 3756.19 366.727 3780.93 362.82C3784.18 362.82 3788.09 362.495 3792.65 361.844C3797.21 360.542 3802.41 359.565 3808.27 358.914C3836.92 355.008 3851.24 346.544 3851.24 333.523C3851.24 323.758 3846.03 317.573 3835.62 314.969C3825.85 311.714 3816.74 310.086 3808.27 310.086C3799.16 310.086 3791.02 311.388 3783.86 313.992C3776.7 316.596 3771.49 321.479 3768.23 328.641H3702.8C3705.41 308.458 3714.52 291.857 3730.15 278.836C3747.73 263.862 3772.79 256.375 3805.34 256.375C3841.8 256.375 3869.15 262.56 3887.38 274.93C3906.26 287.951 3915.7 306.18 3915.7 329.617V418.484C3915.7 444.526 3910.81 465.034 3901.05 480.008C3891.93 494.331 3880.86 504.747 3867.84 511.258Z" fill="#2B2F37"/>
<path d="M3932.96 522V396.023C3932.96 370.633 3936.54 349.474 3943.7 332.547C3951.52 314.969 3961.93 300.971 3974.95 290.555C3987.32 280.789 4001.65 273.628 4017.92 269.07C4034.85 264.513 4052.1 262.234 4069.68 262.234C4070.98 262.234 4072.61 262.234 4074.56 262.234C4076.52 262.234 4078.14 262.234 4079.45 262.234V331.57H4056.98C4038.1 331.57 4024.11 336.128 4014.99 345.242C4005.88 354.357 4001.32 368.68 4001.32 388.211V522H3932.96Z" fill="#2B2F37"/>
<path d="M4209.02 522C4187.53 523.302 4164.09 522.977 4138.7 521.023C4113.96 519.07 4101.59 503.12 4101.59 473.172V186.062H4136.75C4145.21 186.062 4152.7 189.318 4159.21 195.828C4165.72 202.339 4168.98 210.151 4168.98 219.266V263.211H4209.02V276.883C4209.02 286.648 4205.76 294.786 4199.25 301.297C4192.74 307.156 4184.93 310.086 4175.81 310.086H4168.98V454.617C4168.98 465.685 4175.49 471.219 4188.51 471.219H4209.02V522Z" fill="#2B2F37"/>
<path d="M4448.94 262.234V414.578C4448.94 460.802 4436.89 491.076 4412.8 505.398C4388.72 519.721 4362.35 526.883 4333.7 526.883C4305.71 525.581 4279.99 517.768 4256.55 503.445C4233.77 489.122 4222.38 459.5 4222.38 414.578V262.234H4290.73V428.25C4290.73 443.875 4295.29 455.268 4304.41 462.43C4313.52 469.591 4323.94 473.172 4335.66 473.172C4347.38 473.172 4357.79 469.591 4366.91 462.43C4376.67 455.268 4381.55 443.875 4381.55 428.25V295.438C4381.55 286.323 4384.48 278.51 4390.34 272C4396.85 265.49 4404.99 262.234 4414.76 262.234H4448.94Z" fill="#2B2F37"/>
<path d="M4533.59 584.5C4533.59 593.615 4530.33 601.427 4523.82 607.938C4517.31 614.448 4509.5 617.703 4500.38 617.703H4467.18V374.539C4467.18 328.966 4480.53 298.042 4507.22 281.766C4533.91 264.839 4562.88 256.375 4594.13 256.375C4610.41 256.375 4626.68 259.63 4642.96 266.141C4659.89 272 4673.23 280.789 4683 292.508C4702.53 317.898 4712.3 350.451 4712.3 390.164C4712.3 431.18 4702.53 464.383 4683 489.773C4663.47 514.513 4638.4 526.883 4607.8 526.883C4591.53 526.883 4577.21 523.953 4564.84 518.094C4551.82 511.583 4541.4 501.492 4533.59 487.82V584.5ZM4644.91 393.094C4644.91 367.703 4640.03 348.172 4630.27 334.5C4620.5 320.828 4606.5 313.992 4588.27 313.992C4570.7 313.992 4557.02 320.828 4547.26 334.5C4538.14 346.87 4533.59 366.401 4533.59 393.094C4533.59 417.833 4538.47 436.388 4548.23 448.758C4558 462.43 4572 469.266 4590.23 469.266C4607.15 469.266 4620.5 462.43 4630.27 448.758C4640.03 435.086 4644.91 416.531 4644.91 393.094Z" fill="#2B2F37"/>
<defs>
<linearGradient id="paint0_linear_1_3" x1="422.323" y1="622.12" x2="274.873" y2="305.912" gradientUnits="userSpaceOnUse">
<stop stop-color="#FFEB00"/>
<stop offset="0.6643" stop-color="#FF9C00"/>
<stop offset="0.9996" stop-color="#FF7900"/>
</linearGradient>
<linearGradient id="paint1_linear_1_3" x1="289.26" y1="358.64" x2="597.936" y2="358.64" gradientUnits="userSpaceOnUse">
<stop stop-color="#FFFF00"/>
<stop offset="1" stop-color="#FFD900"/>
</linearGradient>
<linearGradient id="paint2_linear_1_3" x1="476.141" y1="-24.75" x2="111.757" y2="495.644" gradientUnits="userSpaceOnUse">
<stop stop-color="#FFFF00"/>
<stop offset="1" stop-color="#FFAD00"/>
</linearGradient>
</defs>
</svg>
